<?xml version="1.0" encoding="utf-8"?>
<!-- Generator: Adobe Illustrator 25.4.2, SVG Export Plug-In . SVG Version: 6.00 Build 0)  -->
<svg version="1.1" id="Layer_1" xmlns="http://www.w3.org/2000/svg" xmlns:xlink="http://www.w3.org/1999/xlink" x="0px" y="0px"
	 viewBox="0 0 12.45 13.54" style="enable-background:new 0 0 12.45 13.54;" xml:space="preserve">
<style type="text/css">
	.st0{fill:#20ABE3;}
	.st1{fill:#E42F2B;}
	.st2{fill:#FFFFFF;}
	.st3{font-family:'UniversLTStd-Bold';}
	.st4{font-size:6.2523px;}
</style>
<g>
	<path class="st0" d="M11.32,2.86H0.86c0.17,0.47,0.3,0.98,0.25,1.37C0.86,6.22-0.08,6.76,0,8.36c0.18,3.57,3.99,3.71,6.32,5.18
		l0.02,0c2.26-1.56,6.07-1.84,6.1-5.41c0.02-1.6-0.94-2.11-1.27-4.09C11.12,3.71,11.2,3.28,11.32,2.86z"/>
	<path class="st1" d="M11.85,1.46l-1.58-1.19C9.33,0.87,7.55,1.23,6.06,0c-1.44,1.29-3.23,0.99-4.2,0.43L0.33,1.68
		c0,0,0.3,0.55,0.52,1.19h10.46C11.52,2.14,11.85,1.46,11.85,1.46z"/>
	<text transform="matrix(1 0 0 1 4.5951 9.4091)" class="st2 st3 st4">4</text>
</g>
</svg>
